<?xml version="1.0" encoding="UTF-8" standalone="no"?>
<!DOCTYPE svg PUBLIC "-//W3C//DTD SVG 1.1//EN" "http://www.w3.org/Graphics/SVG/1.1/DTD/svg11.dtd">
<svg xmlns="http://www.w3.org/2000/svg" xmlns:xlink="http://www.w3.org/1999/xlink" version="1.1" width="155pt" height="32.25pt" viewBox="0 0 155 32.25">
<g enable-background="new">
<g id="Layer-1" data-name="Layer">
<clipPath id="cp0">
<path transform="matrix(1,0,0,-1,0,32.25)" d="M 0 0 L 155 0 L 155 32.25 L 0 32.25 Z "/>
</clipPath>
<g clip-path="url(#cp0)">
<path transform="matrix(1,0,0,-1,0,32.25)" d="M -357.984 -280.813 L 576.516 -280.813 L 576.516 401.687 L -357.984 401.687 Z M 577.267 -281.563 L -358.73298 -281.563 L -358.73298 402.437 L 577.267 402.437 Z " fill="#6d6e70"/>
</g>
<path transform="matrix(1,0,0,-1,19.3329,21.522)" d="M 0 0 L 5.968 -10.408 L 17.788 -10.408 L 11.816 0 Z " fill="#96144c"/>
<path transform="matrix(1,0,0,-1,1.5444,31.9296)" d="M 0 0 L 11.792 0 L 23.671 20.638 L 17.747 30.828 Z " fill="#96144c"/>
<clipPath id="cp1">
<path transform="matrix(1,0,0,-1,0,32.25)" d="M 0 32.25 L 155 32.25 L 155 0 L 0 0 Z "/>
</clipPath>
<g clip-path="url(#cp1)">
<path transform="matrix(1,0,0,-1,73.9312,12.6348)" d="M 0 0 C -.25 .402 -.549 .699 -.897 .889 C -1.246 1.08 -1.68 1.175 -2.202 1.175 C -2.79 1.175 -3.239 1.042 -3.549 .776 C -3.859 .509 -4.014 .174 -4.014 -.228 C -4.014 -.903 -3.52 -1.382 -2.529 -1.664 L -1.142 -2.072 C -.022 -2.399 .802 -2.853 1.331 -3.435 C 1.858 -4.017 2.122 -4.711 2.122 -5.516 C 2.122 -6.027 2.021 -6.503 1.819 -6.943 C 1.619 -7.384 1.331 -7.765 .955 -8.086 C .58 -8.407 .125 -8.66 -.408 -8.844 C -.941 -9.03 -1.534 -9.122 -2.186 -9.122 C -3.503 -9.122 -4.542 -8.828 -5.304 -8.241 C -6.065 -7.653 -6.522 -6.805 -6.674 -5.695 L -4.651 -5.32 C -4.531 -6.049 -4.262 -6.59 -3.843 -6.943 C -3.424 -7.297 -2.872 -7.474 -2.186 -7.474 C -1.479 -7.474 -.936 -7.303 -.554 -6.96 C -.174 -6.617 .017 -6.174 .017 -5.63 C .017 -5.336 -.032 -5.086 -.13 -4.879 C -.228 -4.673 -.367 -4.49 -.547 -4.332 C -.726 -4.175 -.938 -4.042 -1.183 -3.932 C -1.428 -3.824 -1.692 -3.726 -1.974 -3.639 L -3.312 -3.247 C -4.27 -2.965 -4.977 -2.57 -5.434 -2.064 C -5.891 -1.558 -6.119 -.947 -6.119 -.228 C -6.119 .218 -6.027 .628 -5.842 1.004 C -5.657 1.379 -5.393 1.7 -5.051 1.966 C -4.708 2.233 -4.3 2.443 -3.827 2.595 C -3.353 2.747 -2.823 2.823 -2.236 2.823 C -1.235 2.823 -.418 2.641 .212 2.276 C .843 1.912 1.316 1.42 1.632 .8 Z M -10.672 2.627 L -8.599 2.627 L -8.599 -8.91 L -10.672 -8.91 Z M -19.092 -2.872 L -22.976 2.627 L -20.594 2.627 L -17.885 -1.354 L -15.16 2.627 L -12.81 2.627 L -16.743 -2.889 L -12.483 -8.91 L -14.866 -8.91 L -17.934 -4.471 L -21.035 -8.91 L -23.433 -8.91 Z M -32.36 -4.683 L -28.199 -4.683 L -30.238 -.734 Z M -27.366 -6.315 L -33.224 -6.315 L -34.644 -8.91 L -36.863 -8.91 L -30.222 3.052 L -23.71 -8.91 L -25.962 -8.91 Z " fill="#96144c"/>
<path transform="matrix(1,0,0,-1,83.0696,10.007299)" d="M 0 0 L 9.416 0 L 9.416 -1.73 L 5.745 -1.73 L 5.745 -11.537 L 3.672 -11.537 L 3.672 -1.73 L 0 -1.73 Z " fill="#96144c"/>
<path transform="matrix(1,0,0,-1,96.3854,11.655399)" d="M 0 0 L 0 -3.786 L 1.42 -3.786 C 2.225 -3.786 2.834 -3.626 3.248 -3.305 C 3.661 -2.984 3.868 -2.513 3.868 -1.893 C 3.868 -1.273 3.661 -.802 3.248 -.482 C 2.834 -.161 2.225 0 1.42 0 Z M -2.072 1.648 L 1.452 1.648 C 2.921 1.648 4.039 1.333 4.806 .701 C 5.573 .07 5.957 -.795 5.957 -1.893 C 5.957 -2.774 5.712 -3.503 5.222 -4.08 C 4.733 -4.657 4.015 -5.054 3.068 -5.271 L 7.05 -9.889 L 4.521 -9.889 L .898 -5.434 L 0 -5.434 L 0 -9.889 L -2.072 -9.889 Z " fill="#96144c"/>
<path transform="matrix(1,0,0,-1,107.5801,19.2272)" d="M 0 0 C .522 -.533 1.24 -.8 2.154 -.8 C 3.067 -.8 3.786 -.533 4.308 0 C 4.83 .533 5.091 1.283 5.091 2.252 L 5.091 9.22 L 7.164 9.22 L 7.164 2.186 C 7.164 1.469 7.052 .818 6.829 .236 C 6.606 -.346 6.282 -.843 5.858 -1.257 C 5.434 -1.67 4.909 -1.991 4.284 -2.219 C 3.658 -2.448 2.948 -2.562 2.154 -2.562 C 1.349 -2.562 .636 -2.448 .016 -2.219 C -.604 -1.991 -1.126 -1.67 -1.55 -1.257 C -1.975 -.843 -2.298 -.346 -2.521 .236 C -2.744 .818 -2.856 1.469 -2.856 2.186 L -2.856 9.22 L -.783 9.22 L -.783 2.252 C -.783 1.283 -.523 .533 0 0 " fill="#96144c"/>
<path transform="matrix(1,0,0,-1,123.3435,12.6348)" d="M 0 0 C -.25 .402 -.549 .699 -.897 .889 C -1.246 1.08 -1.681 1.175 -2.203 1.175 C -2.791 1.175 -3.239 1.042 -3.549 .776 C -3.859 .509 -4.015 .174 -4.015 -.228 C -4.015 -.903 -3.52 -1.382 -2.529 -1.664 L -1.142 -2.072 C -.022 -2.399 .802 -2.853 1.33 -3.435 C 1.857 -4.017 2.122 -4.711 2.122 -5.516 C 2.122 -6.027 2.021 -6.503 1.819 -6.943 C 1.618 -7.384 1.33 -7.765 .954 -8.086 C .579 -8.407 .125 -8.66 -.408 -8.844 C -.941 -9.03 -1.534 -9.122 -2.187 -9.122 C -3.503 -9.122 -4.542 -8.828 -5.304 -8.241 C -6.065 -7.653 -6.522 -6.805 -6.674 -5.695 L -4.651 -5.32 C -4.531 -6.049 -4.262 -6.59 -3.843 -6.943 C -3.425 -7.297 -2.872 -7.474 -2.187 -7.474 C -1.48 -7.474 -.936 -7.303 -.555 -6.96 C -.174 -6.617 .016 -6.174 .016 -5.63 C .016 -5.336 -.033 -5.086 -.13 -4.879 C -.229 -4.673 -.367 -4.49 -.547 -4.332 C -.726 -4.175 -.938 -4.042 -1.183 -3.932 C -1.428 -3.824 -1.692 -3.726 -1.974 -3.639 L -3.313 -3.247 C -4.27 -2.965 -4.977 -2.57 -5.434 -2.064 C -5.891 -1.558 -6.119 -.947 -6.119 -.228 C -6.119 .218 -6.027 .628 -5.842 1.004 C -5.657 1.379 -5.393 1.7 -5.051 1.966 C -4.708 2.233 -4.3 2.443 -3.827 2.595 C -3.353 2.747 -2.823 2.823 -2.236 2.823 C -1.235 2.823 -.419 2.641 .212 2.276 C .843 1.912 1.316 1.42 1.632 .8 Z " fill="#96144c"/>
<path transform="matrix(1,0,0,-1,126.3948,10.007299)" d="M 0 0 L 9.416 0 L 9.416 -1.73 L 5.745 -1.73 L 5.745 -11.537 L 3.672 -11.537 L 3.672 -1.73 L 0 -1.73 Z " fill="#96144c"/>
<path transform="matrix(1,0,0,-1,137.6382,10.007299)" d="M 0 0 L 7.278 0 L 7.278 -1.73 L 2.072 -1.73 L 2.072 -4.683 L 6.805 -4.683 L 6.805 -6.413 L 2.072 -6.413 L 2.072 -9.808 L 7.294 -9.808 L 7.294 -11.537 L 0 -11.537 Z " fill="#96144c"/>
<path transform="matrix(1,0,0,-1,147.3149,10.007299)" d="M 0 0 L 7.278 0 L 7.278 -1.73 L 2.072 -1.73 L 2.072 -4.683 L 6.805 -4.683 L 6.805 -6.413 L 2.072 -6.413 L 2.072 -9.808 L 7.294 -9.808 L 7.294 -11.537 L 0 -11.537 Z " fill="#96144c"/>
</g>
</g>
</g>
</svg>
